<?xml version="1.0" standalone="no"?>
<!DOCTYPE svg PUBLIC "-//W3C//DTD SVG 20010904//EN"
 "http://www.w3.org/TR/2001/REC-SVG-20010904/DTD/svg10.dtd">
<svg version="1.0" xmlns="http://www.w3.org/2000/svg"
 width="573.000000pt" height="342.000000pt" viewBox="0 0 573.000000 342.000000"
 preserveAspectRatio="xMidYMid meet">

<g transform="translate(0.000000,342.000000) scale(0.100000,-0.100000)"
fill="#000000" stroke="none">
<path d="M1376 2047 c20 -31 39 -55 42 -52 5 5 -16 37 -53 80 -18 21 -15 12
11 -28z"/>
<path d="M2045 2023 c-40 -10 -46 -23 -25 -50 30 -38 25 -89 -30 -323 -39
-166 -51 -232 -45 -248 4 -12 17 -14 64 -9 100 11 107 16 115 89 8 69 31 177
41 186 3 3 32 8 65 10 73 5 76 0 55 -89 -33 -143 -10 -199 82 -199 67 0 138
36 138 70 0 20 -6 26 -28 28 -47 6 -47 -2 23 332 35 167 37 198 13 207 -19 8
-133 -14 -150 -29 -7 -6 -13 -33 -13 -62 -1 -28 -6 -80 -13 -116 l-12 -65 -60
-3 c-33 -1 -65 1 -72 5 -8 6 -6 34 9 106 12 59 18 111 14 132 l-7 35 -72 -1
c-40 -1 -81 -4 -92 -6z"/>
<path d="M4138 2020 c-46 -14 -49 -19 -28 -53 22 -35 25 -89 11 -164 -28 -146
-35 -179 -47 -212 -6 -20 -20 -40 -30 -46 -80 -44 -89 -64 -53 -121 26 -43 57
-44 102 -4 19 17 39 30 43 30 5 0 42 -16 81 -35 125 -61 183 -41 217 72 14 51
14 53 -5 64 -17 9 -25 7 -45 -12 -22 -20 -30 -22 -106 -16 -45 4 -86 11 -91
16 -6 6 8 53 38 125 76 189 98 278 83 332 l-9 34 -67 -1 c-37 0 -79 -4 -94 -9z"/>
<path d="M4580 2023 c-38 -7 -43 -18 -26 -51 22 -42 20 -79 -10 -217 -37 -170
-62 -295 -66 -330 l-3 -30 73 1 c50 0 77 5 86 15 7 8 20 58 29 111 9 53 31
156 48 228 29 119 34 132 60 145 40 21 76 19 89 -6 13 -23 11 -33 -32 -209
-16 -69 -31 -154 -31 -189 -1 -56 2 -66 24 -84 20 -16 34 -18 80 -14 68 6 143
41 135 63 -3 9 -6 20 -6 25 0 5 -13 9 -30 9 -28 0 -30 2 -30 39 0 22 13 91 29
153 49 192 55 243 34 286 -34 69 -104 80 -199 32 -32 -16 -64 -30 -71 -30 -6
0 -16 14 -22 30 -10 29 -11 30 -73 29 -35 -1 -74 -4 -88 -6z"/>
<path d="M472 1998 c90 -469 174 -878 179 -878 18 0 20 102 4 265 -10 96 -16
178 -13 180 2 3 32 8 66 11 57 6 63 9 68 33 5 27 15 66 33 136 20 81 41 175
41 188 0 10 -51 24 -177 51 -98 20 -184 36 -192 36 -8 0 -12 -8 -9 -22z"/>
<path d="M2677 1780 c-82 -8 -92 -16 -72 -56 13 -28 13 -39 -10 -133 -30 -124
-31 -141 -4 -175 17 -22 28 -26 69 -26 27 0 69 9 93 19 45 19 45 19 63 0 23
-26 87 -25 153 3 46 18 52 24 49 47 -2 20 -8 25 -25 23 -12 -2 -24 1 -27 6 -3
5 6 68 20 141 14 72 23 139 20 147 -5 13 -17 15 -69 9 -85 -10 -97 -18 -97
-63 0 -20 -10 -81 -22 -134 -16 -74 -26 -99 -40 -103 -43 -14 -46 4 -19 119
31 128 30 188 -2 185 -7 -1 -43 -5 -80 -9z"/>
<path d="M3370 1784 c-8 -3 -32 -13 -53 -21 -35 -15 -38 -15 -50 2 -11 15 -26
17 -94 14 -45 -2 -85 -7 -89 -11 -4 -5 1 -23 10 -41 18 -31 17 -36 -8 -156
-14 -68 -26 -137 -26 -154 l0 -30 72 5 c81 6 98 19 98 77 1 48 34 187 50 206
7 8 19 15 26 15 18 0 18 -47 -1 -125 -30 -124 -14 -175 57 -175 82 0 165 40
152 73 -3 9 -17 17 -29 17 -13 0 -26 4 -29 8 -3 5 2 40 10 78 9 38 18 92 21
121 5 46 2 54 -20 77 -25 25 -60 32 -97 20z"/>
<path d="M3654 1766 c-56 -31 -95 -100 -101 -180 -7 -78 -1 -105 33 -145 31
-38 76 -47 132 -28 43 15 63 7 44 -16 -6 -7 -36 -21 -67 -32 -59 -20 -105 -62
-105 -96 0 -11 11 -31 25 -44 47 -48 172 -25 224 41 34 43 69 124 90 204 21
83 46 298 36 308 -3 3 -66 7 -139 8 -120 1 -138 -1 -172 -20z m142 -123 c-12
-128 -18 -148 -46 -148 -23 0 -25 4 -28 60 -5 93 23 165 65 165 13 0 15 -11 9
-77z m-56 -327 c0 -18 -49 -58 -64 -53 -23 8 -17 36 11 51 36 19 53 20 53 2z"/>
<path d="M840 1503 c0 -15 5 -88 11 -162 l11 -136 -41 -194 c-23 -107 -40
-196 -38 -198 5 -4 65 215 72 262 4 22 13 81 22 130 8 50 17 104 20 120 8 54
24 149 29 178 5 26 4 27 -40 27 -43 0 -46 -2 -46 -27z"/>
<path d="M1943 945 c0 -22 2 -30 4 -17 2 12 2 30 0 40 -3 9 -5 -1 -4 -23z"/>
<path d="M1988 955 c3 -17 -1 -31 -9 -37 -12 -8 -11 -9 1 -5 18 4 26 45 12 59
-6 6 -8 0 -4 -17z"/>
<path d="M2221 943 c2 -31 3 -33 6 -10 3 18 9 25 16 20 7 -4 6 0 -2 10 -19 24
-21 22 -20 -20z"/>
<path d="M2271 957 c-1 -20 -5 -26 -13 -21 -8 5 -7 0 2 -11 14 -18 15 -18 18
3 2 12 1 30 -1 40 -3 10 -5 6 -6 -11z"/>
<path d="M2463 945 c0 -22 2 -30 4 -17 2 12 2 30 0 40 -3 9 -5 -1 -4 -23z"/>
<path d="M2708 953 c5 -21 7 -23 10 -9 2 10 0 22 -6 28 -6 6 -7 0 -4 -19z"/>
<path d="M2793 945 c0 -22 2 -30 4 -17 2 12 2 30 0 40 -3 9 -5 -1 -4 -23z"/>
<path d="M2882 945 c0 -22 2 -32 5 -23 2 9 14 19 26 21 l22 4 -22 2 c-12 0
-24 9 -26 19 -3 9 -5 -1 -5 -23z"/>
<path d="M3146 965 c4 -11 -1 -15 -17 -16 -21 -1 -21 -2 -4 -6 11 -3 23 -10
26 -15 3 -5 6 5 7 21 0 17 -3 31 -8 31 -5 0 -7 -7 -4 -15z"/>
<path d="M3633 945 c0 -22 2 -30 4 -17 2 12 2 30 0 40 -3 9 -5 -1 -4 -23z"/>
<path d="M3762 945 c0 -22 2 -32 5 -23 2 9 14 19 26 21 l22 4 -22 2 c-12 0
-24 9 -26 19 -3 9 -5 -1 -5 -23z"/>
<path d="M4014 965 c-5 -12 -10 -13 -20 -5 -10 10 -11 6 -1 -20 12 -31 12 -31
18 -6 4 13 10 29 14 35 3 6 4 11 0 11 -3 0 -8 -7 -11 -15z"/>
<path d="M4240 951 c0 -17 4 -32 8 -35 4 -2 6 11 4 30 -5 42 -12 45 -12 5z"/>
<path d="M4292 950 c0 -19 2 -27 5 -17 2 9 2 25 0 35 -3 9 -5 1 -5 -18z"/>
<path d="M4473 945 c0 -22 2 -30 4 -17 2 12 2 30 0 40 -3 9 -5 -1 -4 -23z"/>
<path d="M4612 945 c0 -22 2 -32 5 -23 2 9 14 19 26 21 l22 4 -22 2 c-12 0
-24 9 -26 19 -3 9 -5 -1 -5 -23z"/>
<path d="M4765 970 c3 -5 8 -10 11 -10 2 0 4 5 4 10 0 6 -5 10 -11 10 -5 0 -7
-4 -4 -10z"/>
<path d="M4883 945 c0 -22 2 -30 4 -17 2 12 2 30 0 40 -3 9 -5 -1 -4 -23z"/>
<path d="M5040 966 c0 -8 -12 -17 -27 -19 l-28 -4 27 -2 c16 0 28 -8 31 -18 3
-10 5 -1 6 20 0 20 -1 37 -4 37 -3 0 -5 -6 -5 -14z"/>
<path d="M2071 944 c0 -11 3 -14 6 -6 3 7 2 16 -1 19 -3 4 -6 -2 -5 -13z"/>
<path d="M4157 941 c-4 -17 -3 -21 5 -13 5 5 8 16 6 23 -3 8 -7 3 -11 -10z"/>
<path d="M4531 944 c0 -11 3 -14 6 -6 3 7 2 16 -1 19 -3 4 -6 -2 -5 -13z"/>
<path d="M4748 942 c-4 -15 -1 -18 18 -14 15 3 24 0 24 -9 0 -7 2 -10 5 -7 9
9 -7 38 -17 32 -6 -4 -14 -1 -18 6 -5 8 -9 6 -12 -8z"/>
<path d="M3248 943 c6 -2 18 -2 25 0 6 3 1 5 -13 5 -14 0 -19 -2 -12 -5z"/>
<path d="M3378 943 c6 -2 18 -2 25 0 6 3 1 5 -13 5 -14 0 -19 -2 -12 -5z"/>
<path d="M3660 941 c0 -5 8 -15 18 -22 15 -12 16 -12 5 2 -7 9 -10 19 -6 22 3
4 1 7 -5 7 -7 0 -12 -4 -12 -9z"/>
</g>
</svg>
